HIERARCHY
ROOT Hip
{
  OFFSET 0.0 0.0 0.0
  CHANNELS 6 Xposition Yposition Zposition Xrotation Yrotation Zrotation
  JOINT LowerSpine
  {
    OFFSET 0.0 0.061367 -0.03653
    CHANNELS 3 Xrotation Yrotation Zrotation
    JOINT MiddleSpine
    {
      OFFSET 0.0 0.056002 0.002633
      CHANNELS 3 Xrotation Yrotation Zrotation
      JOINT Chest
      {
        OFFSET 0.0 0.069296 -0.013882
        CHANNELS 3 Xrotation Yrotation Zrotation
        JOINT Neck
        {
          OFFSET 0.0 0.156156 -0.002923
          CHANNELS 3 Xrotation Yrotation Zrotation
          JOINT Head
          {
            OFFSET 0.0 0.088183 0.023986
            CHANNELS 3 Xrotation Yrotation Zrotation
            End Site
            {
              OFFSET 1e-06 0.123215 0.003678
            }
          }
        }
        JOINT LClavicle
        {
          OFFSET 0.014189 0.150698 0.046467
          CHANNELS 3 Xrotation Yrotation Zrotation
          JOINT LShoulder
          {
            OFFSET 0.082893 0.021616 -0.034976
            CHANNELS 3 Xrotation Yrotation Zrotation
            JOINT LForearm
            {
              OFFSET 0.195645 -0.000695 -0.001695
              CHANNELS 3 Xrotation Yrotation Zrotation
              JOINT LHand
              {
                OFFSET 0.163209 0.000474 -0.000977
                CHANNELS 3 Xrotation Yrotation Zrotation
                End Site
                {
                  OFFSET 0.0 0.006864 0.0
                }
              }
            }
          }
        }
        JOINT RClavicle
        {
          OFFSET -0.014189 0.150698 0.046467
          CHANNELS 3 Xrotation Yrotation Zrotation
          JOINT RShoulder
          {
            OFFSET -0.082908 0.021619 -0.034982
            CHANNELS 3 Xrotation Yrotation Zrotation
            JOINT RForearm
            {
              OFFSET -0.195645 -0.000695 -0.001695
              CHANNELS 3 Xrotation Yrotation Zrotation
              JOINT RHand
              {
                OFFSET -0.163209 0.000474 -0.000977
                CHANNELS 3 Xrotation Yrotation Zrotation
                End Site
                {
                  OFFSET 0.0 0.006864 0.0
                }
              }
            }
          }
        }
      }
    }
  }
  JOINT RThigh
  {
    OFFSET -0.072558 0.02774 -0.005953
    CHANNELS 3 Xrotation Yrotation Zrotation
    JOINT RShin
    {
      OFFSET -0.005253 -0.285537 0.0
      CHANNELS 3 Xrotation Yrotation Zrotation
      JOINT RFoot
      {
        OFFSET 0.0 -0.28038 0.0
        CHANNELS 3 Xrotation Yrotation Zrotation
        JOINT RToe
        {
          OFFSET 0.0 -0.030816 0.064441
          CHANNELS 3 Xrotation Yrotation Zrotation
          End Site
          {
            OFFSET 0.0 0.0 0.043231
          }
        }
      }
    }
  }
  JOINT LThigh
  {
    OFFSET 0.072557 0.027741 -0.005953
    CHANNELS 3 Xrotation Yrotation Zrotation
    JOINT LShin
    {
      OFFSET 0.005253 -0.285539 0.0
      CHANNELS 3 Xrotation Yrotation Zrotation
      JOINT LFoot
      {
        OFFSET 0.0 -0.28038 0.0
        CHANNELS 3 Xrotation Yrotation Zrotation
        JOINT LToe
        {
          OFFSET 0.0 -0.030816 0.064441
          CHANNELS 3 Xrotation Yrotation Zrotation
          End Site
          {
            OFFSET 0.0 0.0 0.043231
          }
        }
      }
    }
  }
}
MOTION
Frames: 6
Frame Time: 0.03333333333333333
0.025948 0.59483 0.000707 -0.805285 -2.786537 -0.700624 -0.644742 -0.229623 -0.146504 0.564938 1.724449 0.018571 -0.002174 2.664555 -1.552913 -1.673401 0.175687 0.068915 0.028947 -0.02735 0.002214 0.24718 -0.380474 -13.76514 20.885088 -28.336311 -53.345097 12.044075 -31.653952 -0.596728 0.168871 0.20039 -0.119536 0.141485 -0.654009 12.288003 17.504679 31.290882 56.52142 6.372421 42.515575 -0.382279 0.094053 -0.302582 0.005245 -2.460011 -0.724038 1.262484 5.343143 -1.108184 0.035539 -2.090706 1.920379 0.721367 0.173968 0.645154 0.115312 3.467333 8.064936 5.480008 5.088171 8.340109 -3.681149 -2.329698 0.886539 0.594757 0.065353 -0.231292 -0.049206 
0.025063 0.589623 0.00294 -1.633072 -4.485142 0.160968 -0.501204 0.085544 0.672011 0.280927 1.071524 -0.006108 1.080243 2.817436 -3.598559 -0.6245 0.109891 -0.257762 0.037195 -0.191898 -0.033579 -0.39357 -0.424993 -14.452929 21.988056 -26.538599 -53.270573 11.627818 -29.007933 0.021957 0.101183 0.130804 -0.094165 -0.396191 0.834405 12.169261 17.564367 27.165043 53.993031 4.752154 54.110592 2.325981 -0.178331 -0.154733 -0.007784 -1.771433 0.630902 0.895809 7.178665 0.493588 -1.435666 -0.642998 1.776089 0.783109 -0.061294 0.258474 0.129684 6.867227 11.259008 4.497227 3.618486 9.215998 -3.521473 -2.08628 0.844204 0.857615 0.101315 -0.204622 -0.068988 
0.018476 0.586492 0.001601 -1.958887 -2.006539 0.570807 -0.418072 0.069305 0.582665 0.09163 0.788568 -0.08917 1.551925 2.062089 -4.179285 -0.383088 0.105919 -0.153661 0.027633 -0.210539 -0.048819 -0.424866 -0.543186 -14.383185 22.871426 -25.485909 -52.810364 12.118775 -30.551775 0.02073 0.064357 0.100215 -0.059631 -0.500922 1.599155 12.123282 19.48959 27.403839 53.819035 3.393904 61.410362 5.808824 -0.177251 -0.147205 -0.008525 -2.23436 0.198563 -0.103451 7.017851 0.273999 -1.062336 -0.522663 1.784991 0.73984 -0.065904 0.156318 0.106438 5.886126 11.659314 4.797954 4.690541 9.473754 -3.525255 -2.001681 0.657115 0.697224 0.09282 -0.14107 -0.05261 
0.01513 0.586544 0.005458 -2.018892 -0.677045 0.784926 -0.443718 0.055355 0.571116 0.138255 0.725367 -0.077248 1.773857 1.862108 -4.289083 -0.329248 0.098135 -0.0827 0.022999 -0.211629 -0.047572 -0.425896 -0.496574 -14.642594 22.950006 -24.736284 -53.165688 11.688725 -30.456532 -0.349847 0.052286 0.086358 -0.041817 -0.425139 1.818426 12.294178 19.330912 27.0023 53.916073 -0.460576 65.191292 9.034867 -0.171832 -0.121565 -0.009662 -2.135157 0.139826 -0.350338 6.763148 0.285908 -1.16768 -0.697871 1.701325 0.716751 -0.053704 0.117993 0.096236 5.877045 11.839607 4.488239 4.814749 9.440922 -3.329945 -2.125967 0.688501 0.693233 0.080888 -0.103634 -0.04131 
0.015097 0.586009 0.007292 -2.231726 -0.038892 0.905274 -0.382949 0.029154 0.539208 0.188987 0.742966 -0.042279 1.910594 2.157767 -4.145895 -0.266974 0.093747 -0.042323 0.019439 -0.212685 -0.046561 -0.42864 -0.440071 -14.666944 22.697279 -24.420855 -53.296772 11.354924 -30.165487 -0.507093 0.048373 0.081348 -0.036192 -0.411129 1.872498 12.433084 18.631889 27.114725 54.114658 -1.776064 65.320778 10.262363 -0.171677 -0.104431 -0.009692 -1.89932 0.101368 -0.552918 6.909636 0.284481 -1.166197 -0.793995 1.605639 0.697036 -0.053523 0.100554 0.089368 6.172612 11.97683 4.138891 4.546589 9.249912 -3.153501 -2.299879 0.66099 0.675255 0.072742 -0.088361 -0.038247 
0.013618 0.584588 0.005049 -2.575283 0.190619 1.036065 -0.239681 -0.005689 0.515261 0.179311 0.784887 0.008036 1.882746 2.628959 -3.866676 -0.155305 0.104404 -0.011899 0.016773 -0.222831 -0.045338 -0.465503 -0.458443 -14.479965 22.249077 -24.296576 -53.513618 11.075238 -29.866526 -0.448569 0.046952 0.081297 -0.034392 -0.4741 1.904731 12.538794 17.513514 27.647202 54.64402 -0.33648 61.984604 9.489484 -0.183005 -0.090189 -0.010871 -1.729362 0.154017 -0.605084 7.266218 0.324643 -1.122918 -0.889468 1.501066 0.655399 -0.060956 0.091477 0.087494 6.445285 12.033895 3.80373 4.182298 8.939215 -3.060916 -2.443907 0.595616 0.653424 0.06871 -0.084953 -0.040422 
